<svg width="17" height="16" viewBox="0 0 17 16" fill="none" xmlns="http://www.w3.org/2000/svg">
<path fill-rule="evenodd" clip-rule="evenodd" d="M16.0412 8.77602C16.3408 8.47649 16.3408 7.99085 16.0412 7.69131L9.29042 0.940515C8.99089 0.640981 8.50525 0.640981 8.20571 0.940515C7.90618 1.24005 7.90618 1.72569 8.20571 2.02522L14.4142 8.23366L8.20572 14.4421C7.90618 14.7416 7.90618 15.2273 8.20572 15.5268C8.50525 15.8263 8.99089 15.8263 9.29042 15.5268L16.0412 8.77602Z" fill="#ADAEBE"/>
<path fill-rule="evenodd" clip-rule="evenodd" d="M16.2667 8.23373C16.2667 7.81012 15.9233 7.46672 15.4997 7.46672L1.03373 7.46673C0.610123 7.46673 0.266724 7.81012 0.266724 8.23373C0.266724 8.65733 0.610123 9.00073 1.03373 9.00073L15.4997 9.00073C15.9233 9.00073 16.2667 8.65733 16.2667 8.23373Z" fill="#ADAEBE"/>
</svg>
