<svg width="72" height="73" viewBox="0 0 72 73" fill="none" xmlns="http://www.w3.org/2000/svg">
<rect opacity="0.15" y="0.126709" width="72" height="72" rx="20" fill="#6A72FB"/>
<path d="M37.391 42.8489C37.8768 42.4102 38.2149 41.8319 38.359 41.1934C38.5031 40.5549 38.4461 39.8874 38.1958 39.2826C37.9455 38.6778 37.5142 38.1652 36.961 37.8152C36.4079 37.4652 35.76 37.295 35.1062 37.3278L33.5641 37.407C33.4044 37.4159 33.2446 37.3908 33.0953 37.3334C32.9459 37.2761 32.8104 37.1877 32.6977 37.0742C32.5848 36.961 32.4969 36.8255 32.4396 36.6762C32.3823 36.527 32.3568 36.3674 32.365 36.2078L32.4441 34.6657C32.4769 34.0119 32.3067 33.3641 31.9567 32.8109C31.6067 32.2578 31.0942 31.8264 30.4893 31.5762C29.8845 31.3259 29.217 31.2689 28.5785 31.413C27.94 31.557 27.3617 31.8952 26.923 32.381L25.8902 33.5274C25.78 33.6405 25.6483 33.7303 25.5028 33.7917C25.3573 33.8531 25.201 33.8847 25.0431 33.8847C24.8852 33.8847 24.7289 33.8531 24.5834 33.7917C24.4379 33.7303 24.3061 33.6405 24.1959 33.5274L23.1611 32.3789C22.7222 31.8928 22.1435 31.5545 21.5046 31.4105C20.8656 31.2665 20.1978 31.3238 19.5927 31.5747C18.9877 31.8255 18.4752 32.2575 18.1255 32.8113C17.7759 33.3651 17.6063 34.0136 17.64 34.6677L17.7191 36.2098C17.7271 36.3691 17.7016 36.5284 17.6443 36.6772C17.587 36.8261 17.4991 36.9613 17.3864 37.0742C17.276 37.1908 17.1408 37.2813 16.9909 37.3389C16.841 37.3964 16.6801 37.4197 16.52 37.407L14.9799 37.3278C14.326 37.2945 13.6778 37.4645 13.1243 37.8143C12.5708 38.1641 12.1392 38.6766 11.8886 39.2816C11.638 39.8865 11.5809 40.5542 11.7249 41.1929C11.869 41.8316 12.2072 42.4101 12.6931 42.8489L13.8375 43.8838C13.9562 43.9907 14.0511 44.1213 14.116 44.2673C14.181 44.4132 14.2145 44.5712 14.2145 44.7309C14.2145 44.8906 14.181 45.0486 14.116 45.1945C14.0511 45.3404 13.9562 45.4711 13.8375 45.578L12.6931 46.6108C12.2072 47.0496 11.869 47.6281 11.7249 48.2669C11.5809 48.9056 11.638 49.5732 11.8886 50.1782C12.1392 50.7831 12.5708 51.2957 13.1243 51.6455C13.6778 51.9953 14.326 52.1652 14.9799 52.1319L16.5159 52.0528C16.6755 52.0449 16.8349 52.0706 16.9839 52.1281C17.133 52.1856 17.2683 52.2736 17.3813 52.3866C17.4942 52.4996 17.5823 52.6349 17.6398 52.7839C17.6973 52.933 17.7229 53.0924 17.7151 53.252L17.636 54.7961C17.6031 55.4498 17.7734 56.0977 18.1234 56.6509C18.4733 57.204 18.9859 57.6353 19.5907 57.8856C20.1956 58.1359 20.863 58.1929 21.5015 58.0488C22.14 57.9047 22.7183 57.5666 23.1571 57.0808L24.1919 55.9344C24.3019 55.8211 24.4336 55.731 24.5791 55.6695C24.7247 55.6079 24.881 55.5762 25.039 55.5762C25.197 55.5762 25.3534 55.6079 25.4989 55.6695C25.6444 55.731 25.7761 55.8211 25.8861 55.9344L26.9189 57.0808C27.2175 57.4096 27.5814 57.6724 27.9874 57.8524C28.3935 58.0323 28.8326 58.1255 29.2767 58.1258C29.6945 58.127 30.1084 58.0449 30.4942 57.8843C31.098 57.6324 31.6094 57.2001 31.9584 56.6467C32.3074 56.0932 32.477 55.4455 32.4441 54.792L32.365 53.2499C32.3569 53.0906 32.3823 52.9313 32.4396 52.7824C32.497 52.6335 32.5849 52.4983 32.6977 52.3856C32.8098 52.271 32.9451 52.1819 33.0946 52.1241C33.2441 52.0664 33.4042 52.0413 33.5641 52.0508L35.1062 52.1299C35.76 52.1634 36.4082 51.9937 36.9616 51.644C37.515 51.2943 37.9466 50.7818 38.197 50.1769C38.4473 49.5721 38.5043 48.9045 38.36 48.2659C38.2157 47.6274 37.8772 47.0492 37.391 46.6108L36.2466 45.576C36.1279 45.4691 36.033 45.3384 35.9681 45.1925C35.9032 45.0465 35.8696 44.8886 35.8696 44.7289C35.8696 44.5691 35.9032 44.4112 35.9681 44.2652C36.033 44.1193 36.1279 43.9887 36.2466 43.8817L37.391 42.8489ZM25.038 50.6974C23.8577 50.6974 22.704 50.3474 21.7226 49.6917C20.7413 49.0359 19.9764 48.104 19.5248 47.0135C19.0731 45.9231 18.9549 44.7233 19.1852 43.5657C19.4154 42.4081 19.9838 41.3448 20.8183 40.5102C21.6529 39.6757 22.7162 39.1073 23.8738 38.877C25.0314 38.6468 26.2312 38.765 27.3217 39.2166C28.4121 39.6683 29.3441 40.4332 29.9998 41.4145C30.6555 42.3959 31.0055 43.5496 31.0055 44.7299C31.0039 46.3121 30.3746 47.829 29.2559 48.9477C28.1371 50.0665 26.6202 50.6958 25.038 50.6974V50.6974Z" fill="#2C329B"/>
<path d="M59.2968 29.4044L58.1524 28.3696C58.0338 28.2627 57.9389 28.132 57.8739 27.9861C57.809 27.8401 57.7755 27.6822 57.7755 27.5224C57.7755 27.3627 57.809 27.2048 57.8739 27.0588C57.9389 26.9129 58.0338 26.7822 58.1524 26.6753L59.2968 25.6405C59.7832 25.202 60.1218 24.6236 60.266 23.9848C60.4103 23.3461 60.3532 22.6783 60.1025 22.0734C59.8519 21.4684 59.42 20.9559 58.8662 20.6064C58.3125 20.2569 57.664 20.0874 57.0101 20.1214L55.47 20.2005C55.3103 20.2078 55.1508 20.1818 55.0016 20.1241C54.8525 20.0665 54.7169 19.9785 54.6036 19.8658C54.4908 19.7529 54.403 19.6177 54.3457 19.4688C54.2883 19.3199 54.2629 19.1607 54.2708 19.0014L54.3499 17.4572C54.3828 16.8035 54.2125 16.1556 53.8626 15.6025C53.5126 15.0493 53 14.618 52.3952 14.3677C51.7903 14.1174 51.1229 14.0604 50.4844 14.2045C49.8459 14.3486 49.2676 14.6867 48.8289 15.1725L47.794 16.321C47.6838 16.434 47.5521 16.5239 47.4066 16.5853C47.2611 16.6466 47.1048 16.6782 46.9469 16.6782C46.789 16.6782 46.6327 16.6466 46.4872 16.5853C46.3417 16.5239 46.21 16.434 46.0998 16.321L45.067 15.1745C44.6283 14.6889 44.0503 14.3509 43.412 14.2067C42.7736 14.0626 42.1064 14.1195 41.5017 14.3695C40.8969 14.6195 40.3844 15.0505 40.0342 15.6033C39.6841 16.1561 39.5135 16.8037 39.5459 17.4572L39.625 18.9993C39.633 19.1587 39.6075 19.3179 39.5501 19.4668C39.4928 19.6156 39.405 19.7509 39.2922 19.8637C39.1827 19.9817 39.0478 20.0731 38.8977 20.1312C38.7476 20.1892 38.5862 20.2122 38.4258 20.1985L36.8837 20.1194C36.2299 20.0859 35.5818 20.2556 35.0284 20.6053C34.475 20.955 34.0434 21.4675 33.793 22.0724C33.5426 22.6772 33.4857 23.3448 33.63 23.9833C33.7743 24.6219 34.1128 25.2001 34.599 25.6385L35.7434 26.6733C35.862 26.7802 35.9569 26.9109 36.0219 27.0568C36.0868 27.2027 36.1204 27.3607 36.1204 27.5204C36.1204 27.6801 36.0868 27.8381 36.0219 27.984C35.9569 28.13 35.862 28.2606 35.7434 28.3676L34.599 29.4024C34.1132 29.8411 33.7751 30.4194 33.631 31.0579C33.4869 31.6964 33.5439 32.3639 33.7942 32.9687C34.0445 33.5735 34.4758 34.0861 35.0289 34.4361C35.5821 34.7861 36.23 34.9563 36.8837 34.9235L38.4258 34.8443C38.5855 34.8374 38.7449 34.8635 38.894 34.9211C39.0431 34.9787 39.1787 35.0666 39.2922 35.1791C39.4051 35.2915 39.4931 35.4263 39.5504 35.5749C39.6078 35.7235 39.6332 35.8824 39.625 36.0415L39.5459 37.5856C39.513 38.2394 39.6833 38.8872 40.0333 39.4404C40.3832 39.9935 40.8958 40.4249 41.5006 40.6751C42.1055 40.9254 42.7729 40.9824 43.4114 40.8384C44.0499 40.6943 44.6282 40.3561 45.067 39.8703L46.0998 38.7239C46.2097 38.6103 46.3413 38.52 46.4868 38.4583C46.6324 38.3967 46.7888 38.3649 46.9469 38.3649C47.105 38.3649 47.2614 38.3967 47.4069 38.4583C47.5525 38.52 47.6841 38.6103 47.794 38.7239L48.8289 39.8724C49.1275 40.2009 49.4915 40.4634 49.8975 40.643C50.3036 40.8226 50.7426 40.9154 51.1866 40.9153C51.6043 40.9175 52.0183 40.8361 52.4041 40.6759C53.0091 40.4249 53.5217 39.9931 53.8719 39.4395C54.222 38.886 54.3925 38.2378 54.3601 37.5836L54.281 36.0415C54.273 35.8822 54.2985 35.7229 54.3558 35.5741C54.4131 35.4252 54.501 35.29 54.6137 35.1771C54.7259 35.0628 54.8613 34.974 55.0108 34.9166C55.1602 34.8592 55.3203 34.8345 55.4801 34.8443L57.0202 34.9235C57.6741 34.9568 58.3223 34.7868 58.8758 34.437C59.4293 34.0872 59.861 33.5747 60.1115 32.9697C60.3621 32.3648 60.4192 31.6971 60.2752 31.0584C60.1311 30.4197 59.7929 29.8412 59.307 29.4024L59.2968 29.4044ZM46.952 33.4869C45.7717 33.4869 44.6179 33.1369 43.6366 32.4812C42.6553 31.8255 41.8904 30.8935 41.4387 29.8031C40.9871 28.7126 40.8689 27.5128 41.0991 26.3552C41.3294 25.1976 41.8977 24.1343 42.7323 23.2997C43.5669 22.4652 44.6302 21.8968 45.7878 21.6666C46.9453 21.4363 48.1452 21.5545 49.2356 22.0062C50.326 22.4578 51.258 23.2227 51.9138 24.204C52.5695 25.1854 52.9195 26.3391 52.9195 27.5194C52.9173 29.1014 52.2879 30.618 51.1692 31.7367C50.0506 32.8553 48.534 33.4847 46.952 33.4869V33.4869Z" fill="#6A72FB"/>
</svg>
