<svg width="17" height="16" viewBox="0 0 17 16" fill="none" xmlns="http://www.w3.org/2000/svg">
<path fill-rule="evenodd" clip-rule="evenodd" d="M0.614665 8.77602C0.315132 8.47649 0.315132 7.99085 0.614665 7.69131L7.36546 0.940515C7.66499 0.640981 8.15064 0.640981 8.45017 0.940515C8.7497 1.24005 8.7497 1.72569 8.45017 2.02522L2.24173 8.23366L8.45017 14.4421C8.7497 14.7416 8.7497 15.2273 8.45017 15.5268C8.15063 15.8263 7.66499 15.8263 7.36546 15.5268L0.614665 8.77602Z" fill="#ADAEBE"/>
<path fill-rule="evenodd" clip-rule="evenodd" d="M0.38916 8.23373C0.38916 7.81012 0.73256 7.46672 1.15616 7.46672L15.6222 7.46673C16.0458 7.46673 16.3892 7.81012 16.3892 8.23373C16.3892 8.65733 16.0458 9.00073 15.6222 9.00073L1.15616 9.00073C0.732559 9.00073 0.38916 8.65733 0.38916 8.23373Z" fill="#ADAEBE"/>
</svg>
